<svg width="14" height="16" viewBox="0 0 14 16" fill="none" xmlns="http://www.w3.org/2000/svg">
<path d="M2.00004 15.5001C1.54171 15.5001 1.14948 15.337 0.823374 15.0109C0.496707 14.6842 0.333374 14.2917 0.333374 13.8334V6.33341C0.333374 6.06953 0.392541 5.81953 0.510874 5.58342C0.628652 5.3473 0.791708 5.15286 1.00004 5.00008L6.00004 1.25008C6.15282 1.13897 6.31254 1.05564 6.47921 1.00008C6.64587 0.944526 6.81949 0.916748 7.00004 0.916748C7.1806 0.916748 7.35421 0.944526 7.52087 1.00008C7.68754 1.05564 7.84726 1.13897 8.00004 1.25008L13 5.00008C13.2084 5.15286 13.3717 5.3473 13.49 5.58342C13.6078 5.81953 13.6667 6.06953 13.6667 6.33341V13.8334C13.6667 14.2917 13.5037 14.6842 13.1775 15.0109C12.8509 15.337 12.4584 15.5001 12 15.5001H8.66671V9.66675H5.33337V15.5001H2.00004Z" fill="#111111"/>
</svg>
