<svg width="13" height="13" viewBox="0 0 13 13" fill="none" xmlns="http://www.w3.org/2000/svg">
<path d="M2.73438 12.8999V4.72412H0.191406V12.8999H2.73438ZM1.44922 3.63037C2.26953 3.63037 2.92578 2.94678 2.92578 2.12646C2.92578 1.3335 2.26953 0.677246 1.44922 0.677246C0.65625 0.677246 0 1.3335 0 2.12646C0 2.94678 0.65625 3.63037 1.44922 3.63037ZM12.2227 12.8999H12.25V8.41553C12.25 6.22803 11.7578 4.53271 9.1875 4.53271C7.95703 4.53271 7.13672 5.21631 6.78125 5.84521H6.75391V4.72412H4.32031V12.8999H6.86328V8.85303C6.86328 7.78662 7.05469 6.7749 8.36719 6.7749C9.67969 6.7749 9.70703 7.97803 9.70703 8.93506V12.8999H12.2227Z" fill="#222222"/>
</svg>
