<svg width="40" height="40" viewBox="0 0 40 40" fill="none" xmlns="http://www.w3.org/2000/svg">
<g clip-path="url(#clip0_1_377)">
<path d="M37.5778 0H2.42207V23.4372H10.6251V27.7795C10.6251 33.3888 14.3471 38.3757 19.6764 39.907L20 39.9999L20.3235 39.907C25.6528 38.3757 29.3748 33.3887 29.3748 27.7795V23.4372H37.5778V0ZM35.2341 2.34372V4.68744H4.76579V2.34372H35.2341ZM27.0311 27.7795C27.0311 32.2348 24.1568 36.2061 20 37.5554C15.8431 36.2061 12.9688 32.2348 12.9688 27.7795V23.4372H16.4844C17.8829 23.4372 19.1404 22.8215 20 21.847C20.8596 22.8216 22.117 23.4372 23.5155 23.4372H27.0311V27.7795ZM23.5155 21.0935C22.2232 21.0935 21.1718 20.0421 21.1718 18.7497H18.8281C18.8281 20.0421 17.7767 21.0935 16.4844 21.0935C15.9666 21.0935 5.28407 21.0935 4.76579 21.0935V7.03115H35.2341V21.0935C34.7171 21.0935 24.0349 21.0935 23.5155 21.0935Z" fill="url(#paint0_linear_1_377)"/>
<path d="M20.5031 25.1024L20 24.8633L19.497 25.1024C18.5499 25.5526 17.5363 25.7808 16.4845 25.7808H15.3126V27.7789C15.3126 30.6624 16.8963 33.3037 19.4459 34.6719L20 34.9693L20.5542 34.6719C23.1037 33.3036 24.6875 30.6624 24.6875 27.7789V25.7808H23.5156C22.4638 25.7808 21.4502 25.5526 20.5031 25.1024ZM20 32.2663C18.614 31.2982 17.7473 29.747 17.663 28.0514C18.4655 27.9508 19.2469 27.7468 20 27.4407C20.753 27.7468 21.5345 27.9508 22.337 28.0514C22.2527 29.7471 21.386 31.2982 20 32.2663Z" fill="url(#paint1_linear_1_377)"/>
<path d="M25.8593 14.0623H32.8904V16.406H25.8593V14.0623Z" fill="url(#paint2_linear_1_377)"/>
</g>
<defs>
<linearGradient id="paint0_linear_1_377" x1="15.5" y1="34.1132" x2="18.9246" y2="0.347319" gradientUnits="userSpaceOnUse">
<stop stop-color="#161B1F"/>
<stop offset="1" stop-color="#323B42"/>
</linearGradient>
<linearGradient id="paint1_linear_1_377" x1="18.8001" y1="33.482" x2="19.6207" y2="24.9421" gradientUnits="userSpaceOnUse">
<stop stop-color="#161B1F"/>
<stop offset="1" stop-color="#323B42"/>
</linearGradient>
<linearGradient id="paint2_linear_1_377" x1="28.4748" y1="16.0611" x2="28.5342" y2="14.064" gradientUnits="userSpaceOnUse">
<stop stop-color="#161B1F"/>
<stop offset="1" stop-color="#323B42"/>
</linearGradient>
<clipPath id="clip0_1_377">
<rect width="40" height="40" fill="white"/>
</clipPath>
</defs>
</svg>
