<svg width="40" height="40" viewBox="0 0 40 40" fill="none" xmlns="http://www.w3.org/2000/svg">
<g clip-path="url(#clip0_1_364)">
<path d="M37.8386 26.7449V7.57823H32.3023C31.3862 5.61183 29.3919 4.24487 27.0834 4.24487C24.7748 4.24487 22.7805 5.61183 21.8644 7.57823H2.16148V26.7449H0V29.885C0 33.1219 2.63336 35.7553 5.87031 35.7553H34.1298C37.3667 35.7553 40.0001 33.1219 40.0001 29.885V26.7449H37.8386ZM27.0834 6.58862C28.9645 6.58862 30.4948 8.11901 30.4948 10.0001C30.4948 11.8812 28.9645 13.4116 27.0834 13.4116C25.2023 13.4116 23.6719 11.8812 23.6719 10.0001C23.6719 8.11901 25.2023 6.58862 27.0834 6.58862ZM29.2318 15.3377V19.0184L27.0834 18.4792L24.9349 19.0184V15.3377C25.5992 15.606 26.324 15.7553 27.0834 15.7553C27.8427 15.7553 28.5675 15.6061 29.2318 15.3377ZM4.50523 9.92198H21.3301C21.3301 11.2797 21.8018 12.6064 22.5912 13.5917V22.0231L27.0834 20.8957L31.5755 22.0231V13.5917C32.3649 12.6064 32.8366 11.2797 32.8366 9.92198H35.4948V26.7449H20.4851C20.3963 24.4368 19.1298 22.4257 17.2692 21.2988C18.2204 20.3899 18.8148 19.1106 18.8148 17.6942C18.8148 14.9437 16.577 12.706 13.8265 12.706C11.076 12.706 8.83828 14.9438 8.83828 17.6942C8.83828 19.1106 9.43258 20.3899 10.3837 21.2988C8.52328 22.4257 7.25664 24.4367 7.16797 26.7449H4.50523V9.92198ZM13.8262 22.6825H13.8266C13.8266 22.6825 13.8268 22.6825 13.827 22.6825C16.1226 22.6827 18.0058 24.4824 18.1402 26.7449H9.51289C9.64742 24.4824 11.5305 22.6827 13.8262 22.6825ZM11.1821 17.6942C11.1821 16.236 12.3684 15.0498 13.8266 15.0498C15.2848 15.0498 16.4711 16.2361 16.4711 17.6942C16.4711 19.1523 15.285 20.3385 13.827 20.3387C13.8268 20.3387 13.8267 20.3387 13.8266 20.3387C13.8264 20.3387 13.8263 20.3387 13.8262 20.3387C12.3682 20.3385 11.1821 19.1523 11.1821 17.6942ZM37.6562 29.885C37.6562 31.8296 36.0743 33.4115 34.1298 33.4115H5.87031C3.92578 33.4115 2.34375 31.8295 2.34375 29.885V29.0912H37.6562V29.885Z" fill="url(#paint0_linear_1_364)"/>
</g>
<defs>
<linearGradient id="paint0_linear_1_364" x1="14.88" y1="31.118" x2="16.7578" y2="4.37673" gradientUnits="userSpaceOnUse">
<stop stop-color="#161B1F"/>
<stop offset="1" stop-color="#323B42"/>
</linearGradient>
<clipPath id="clip0_1_364">
<rect width="40" height="40" fill="white"/>
</clipPath>
</defs>
</svg>
