<svg width="36" height="40" viewBox="0 0 36 40" fill="none" xmlns="http://www.w3.org/2000/svg">
<path d="M31.2394 25.5232L30.8906 25.337V20.739H22.247V18.9189C24.6718 17.5538 26.2004 14.9771 26.2004 12.1558L26.2053 6.45102C26.2063 5.52695 26.0155 4.63438 25.6384 3.79836C24.5984 1.49094 22.2915 0 19.7613 0H16.2425C12.6898 0 9.79937 2.89078 9.79937 6.44391V12.1548C9.79937 14.977 11.328 17.5538 13.7528 18.9189V20.739H5.10938V25.337L4.76039 25.5234C2.0843 26.9527 0.421875 29.7254 0.421875 32.7594V40H35.5781V32.7594C35.5781 29.7254 33.9157 26.9527 31.2394 25.5232ZM16.2425 2.34375H19.7613C21.0316 2.34375 22.2131 2.93469 22.9806 3.90539L19.4185 6.18453C18.2662 6.92188 16.9339 7.31164 15.5659 7.31164H12.1431V6.44391C12.1431 4.18313 13.9821 2.34375 16.2425 2.34375ZM15.3939 17.1213C13.4191 16.2585 12.1431 14.309 12.1431 12.1548V9.65531H15.5659C17.3824 9.65531 19.1515 9.13781 20.6817 8.15867L23.8486 6.13242C23.8564 6.23719 23.8616 6.34242 23.8615 6.44867L23.8566 12.1548C23.8566 14.309 22.5805 16.2585 20.6059 17.1213L19.9031 17.4284V20.739H16.0965V17.4284L15.3939 17.1213ZM28.5469 23.0827V32.9688H7.45312V23.0827H28.5469ZM2.76562 37.6562V32.7594C2.76562 30.8942 3.64578 29.1679 5.10938 28.072V37.6562H2.76562ZM7.45312 37.6562V35.3125H28.5469V37.6562H7.45312ZM33.2344 37.6562H30.8906V28.072C32.3543 29.168 33.2344 30.8943 33.2344 32.7595V37.6562Z" fill="url(#paint0_linear_2_2182)"/>
<path d="M16.8281 25.4148H19.1719V27.7585H16.8281V25.4148Z" fill="url(#paint1_linear_2_2182)"/>
<defs>
<linearGradient id="paint0_linear_2_2182" x1="18" y1="0" x2="18" y2="40" gradientUnits="userSpaceOnUse">
<stop stop-color="#130855"/>
<stop offset="1" stop-color="#009DFF"/>
</linearGradient>
<linearGradient id="paint1_linear_2_2182" x1="18" y1="25.4148" x2="18" y2="27.7585" gradientUnits="userSpaceOnUse">
<stop stop-color="#130855"/>
<stop offset="1" stop-color="#009DFF"/>
</linearGradient>
</defs>
</svg>
