<svg width="40" height="40" viewBox="0 0 40 40" fill="none" xmlns="http://www.w3.org/2000/svg">
<g clip-path="url(#clip0_1_385)">
<path d="M34.4977 29.0242L34.4529 28.9712C32.2668 26.3824 29.274 24.6202 25.9434 23.8977C27.6884 22.6493 29.0376 20.882 29.7651 18.8235H32.4445C33.9459 18.8235 35.1672 17.6022 35.1672 16.1009V15.2941C35.1672 6.86094 28.3063 0 19.8731 0C11.4399 0 4.57898 6.86094 4.57898 15.2941V16.1009C4.57898 17.6022 5.80039 18.8235 7.30164 18.8235H9.88392C10.6233 20.9158 12.0053 22.7068 13.7921 23.9584C10.5678 24.7154 7.67506 26.4511 5.54698 28.9711L5.5018 29.0247C3.05051 31.9276 1.80753 35.2245 1.80753 38.8235V40H38.1925V38.8235C38.1925 35.2245 36.9495 31.9277 34.4977 29.0242ZM19.8245 23.5076C16.563 23.5076 13.7411 21.5902 12.426 18.8235H18.3045V16.4706H11.719C11.666 16.0948 11.6379 15.7111 11.6379 15.3209C11.6379 10.8067 15.3104 7.1342 19.8245 7.1342C24.3387 7.1342 28.0112 10.8067 28.0112 15.3209C28.0112 19.8351 24.3387 23.5076 19.8245 23.5076ZM32.8144 16.1009C32.8144 16.3048 32.6485 16.4706 32.4446 16.4706H30.3013C30.3424 16.0929 30.3642 15.7094 30.3642 15.3209C30.3642 14.914 30.3402 14.5127 30.2951 14.1176H32.7603C32.7954 14.5053 32.8144 14.8975 32.8144 15.2941V16.1009ZM19.8732 2.35294C25.7859 2.35294 30.7851 6.33882 32.3251 11.7647H29.7462C28.284 7.69773 24.3887 4.78125 19.8245 4.78125C15.2604 4.78125 11.3651 7.69773 9.90298 11.7647H7.42125C8.96125 6.33882 13.9605 2.35294 19.8732 2.35294ZM7.30172 16.4706C7.0978 16.4706 6.932 16.3048 6.932 16.1009V15.2941C6.932 14.8975 6.95098 14.5053 6.98604 14.1176H9.35404C9.30894 14.5127 9.28494 14.914 9.28494 15.3209C9.28494 15.7094 9.30674 16.0929 9.34792 16.4706H7.30172ZM4.21466 37.6471C4.45458 35.0717 5.48933 32.6865 7.2996 30.5428L7.34478 30.4893C9.81717 27.5615 13.5219 25.8824 17.509 25.8824H22.4911C26.4782 25.8824 30.1829 27.5615 32.6556 30.4897L32.7004 30.5427C34.5107 32.6865 35.5454 35.0717 35.7853 37.6471H4.21466Z" fill="url(#paint0_linear_1_385)"/>
</g>
<defs>
<linearGradient id="paint0_linear_1_385" x1="15.3427" y1="34.1133" x2="18.6538" y2="0.32447" gradientUnits="userSpaceOnUse">
<stop stop-color="#161B1F"/>
<stop offset="1" stop-color="#323B42"/>
</linearGradient>
<clipPath id="clip0_1_385">
<rect width="40" height="40" fill="white"/>
</clipPath>
</defs>
</svg>
