<svg width="40" height="40" viewBox="0 0 40 40" fill="none" xmlns="http://www.w3.org/2000/svg">
<circle opacity="0.05" cx="20" cy="20" r="20" fill="#222222"/>
<g clip-path="url(#clip0_100_1027)">
<path d="M20.1981 17.655L15.1244 22.7428C14.9583 22.9095 14.9585 23.1794 15.1253 23.3458C15.2919 23.5121 15.562 23.5117 15.7283 23.3449L20.5 18.56L25.2718 23.3451C25.438 23.5118 25.7079 23.5122 25.8746 23.346C25.9582 23.2625 26 23.1533 26 23.044C26 22.9349 25.9585 22.8261 25.8755 22.7428L20.8019 17.655C20.722 17.5747 20.6133 17.5296 20.5 17.5296C20.3867 17.5296 20.2782 17.5748 20.1981 17.655Z" fill="#222222"/>
</g>
<defs>
<clipPath id="clip0_100_1027">
<rect width="11" height="11" fill="white" transform="translate(15 26) rotate(-90)"/>
</clipPath>
</defs>
</svg>
