<svg width="25" height="25" viewBox="0 0 25 25" fill="none" xmlns="http://www.w3.org/2000/svg">
<path d="M2.77778 5.55556C3.51449 5.55556 4.22103 5.2629 4.74196 4.74196C5.2629 4.22103 5.55556 3.51449 5.55556 2.77778C5.55556 2.04107 5.2629 1.33453 4.74196 0.813592C4.22103 0.292658 3.51449 0 2.77778 0C2.04107 0 1.33453 0.292658 0.813592 0.813592C0.292658 1.33453 0 2.04107 0 2.77778C0 3.51449 0.292658 4.22103 0.813592 4.74196C1.33453 5.2629 2.04107 5.55556 2.77778 5.55556ZM12.5 5.55556C13.2367 5.55556 13.9433 5.2629 14.4642 4.74196C14.9851 4.22103 15.2778 3.51449 15.2778 2.77778C15.2778 2.04107 14.9851 1.33453 14.4642 0.813592C13.9433 0.292658 13.2367 0 12.5 0C11.7633 0 11.0567 0.292658 10.5358 0.813592C10.0149 1.33453 9.72222 2.04107 9.72222 2.77778C9.72222 3.51449 10.0149 4.22103 10.5358 4.74196C11.0567 5.2629 11.7633 5.55556 12.5 5.55556ZM22.2222 5.55556C22.9589 5.55556 23.6655 5.2629 24.1864 4.74196C24.7073 4.22103 25 3.51449 25 2.77778C25 2.04107 24.7073 1.33453 24.1864 0.813592C23.6655 0.292658 22.9589 0 22.2222 0C21.4855 0 20.779 0.292658 20.258 0.813592C19.7371 1.33453 19.4444 2.04107 19.4444 2.77778C19.4444 3.51449 19.7371 4.22103 20.258 4.74196C20.779 5.2629 21.4855 5.55556 22.2222 5.55556ZM2.77778 15.2778C3.51449 15.2778 4.22103 14.9851 4.74196 14.4642C5.2629 13.9433 5.55556 13.2367 5.55556 12.5C5.55556 11.7633 5.2629 11.0567 4.74196 10.5358C4.22103 10.0149 3.51449 9.72222 2.77778 9.72222C2.04107 9.72222 1.33453 10.0149 0.813592 10.5358C0.292658 11.0567 0 11.7633 0 12.5C0 13.2367 0.292658 13.9433 0.813592 14.4642C1.33453 14.9851 2.04107 15.2778 2.77778 15.2778ZM12.5 15.2778C13.2367 15.2778 13.9433 14.9851 14.4642 14.4642C14.9851 13.9433 15.2778 13.2367 15.2778 12.5C15.2778 11.7633 14.9851 11.0567 14.4642 10.5358C13.9433 10.0149 13.2367 9.72222 12.5 9.72222C11.7633 9.72222 11.0567 10.0149 10.5358 10.5358C10.0149 11.0567 9.72222 11.7633 9.72222 12.5C9.72222 13.2367 10.0149 13.9433 10.5358 14.4642C11.0567 14.9851 11.7633 15.2778 12.5 15.2778ZM22.2222 15.2778C22.9589 15.2778 23.6655 14.9851 24.1864 14.4642C24.7073 13.9433 25 13.2367 25 12.5C25 11.7633 24.7073 11.0567 24.1864 10.5358C23.6655 10.0149 22.9589 9.72222 22.2222 9.72222C21.4855 9.72222 20.779 10.0149 20.258 10.5358C19.7371 11.0567 19.4444 11.7633 19.4444 12.5C19.4444 13.2367 19.7371 13.9433 20.258 14.4642C20.779 14.9851 21.4855 15.2778 22.2222 15.2778ZM2.77778 25C3.51449 25 4.22103 24.7073 4.74196 24.1864C5.2629 23.6655 5.55556 22.9589 5.55556 22.2222C5.55556 21.4855 5.2629 20.779 4.74196 20.258C4.22103 19.7371 3.51449 19.4444 2.77778 19.4444C2.04107 19.4444 1.33453 19.7371 0.813592 20.258C0.292658 20.779 0 21.4855 0 22.2222C0 22.9589 0.292658 23.6655 0.813592 24.1864C1.33453 24.7073 2.04107 25 2.77778 25ZM12.5 25C13.2367 25 13.9433 24.7073 14.4642 24.1864C14.9851 23.6655 15.2778 22.9589 15.2778 22.2222C15.2778 21.4855 14.9851 20.779 14.4642 20.258C13.9433 19.7371 13.2367 19.4444 12.5 19.4444C11.7633 19.4444 11.0567 19.7371 10.5358 20.258C10.0149 20.779 9.72222 21.4855 9.72222 22.2222C9.72222 22.9589 10.0149 23.6655 10.5358 24.1864C11.0567 24.7073 11.7633 25 12.5 25ZM22.2222 25C22.9589 25 23.6655 24.7073 24.1864 24.1864C24.7073 23.6655 25 22.9589 25 22.2222C25 21.4855 24.7073 20.779 24.1864 20.258C23.6655 19.7371 22.9589 19.4444 22.2222 19.4444C21.4855 19.4444 20.779 19.7371 20.258 20.258C19.7371 20.779 19.4444 21.4855 19.4444 22.2222C19.4444 22.9589 19.7371 23.6655 20.258 24.1864C20.779 24.7073 21.4855 25 22.2222 25Z" fill="url(#paint0_linear_107_797)"/>
<defs>
<linearGradient id="paint0_linear_107_797" x1="0.419463" y1="10.5769" x2="20.5537" y2="10.5769" gradientUnits="userSpaceOnUse">
<stop stop-color="#00E4FF"/>
<stop offset="0.854167" stop-color="#1657F3"/>
</linearGradient>
</defs>
</svg>
