<svg width="19" height="20" viewBox="0 0 19 20" fill="none" xmlns="http://www.w3.org/2000/svg">
<path d="M2.11111 4.72222C2.67101 4.72222 3.20798 4.4998 3.60389 4.10389C3.9998 3.70798 4.22222 3.17101 4.22222 2.61111C4.22222 2.05121 3.9998 1.51424 3.60389 1.11833C3.20798 0.72242 2.67101 0.5 2.11111 0.5C1.55121 0.5 1.01424 0.72242 0.61833 1.11833C0.22242 1.51424 0 2.05121 0 2.61111C0 3.17101 0.22242 3.70798 0.61833 4.10389C1.01424 4.4998 1.55121 4.72222 2.11111 4.72222ZM9.5 4.72222C10.0599 4.72222 10.5969 4.4998 10.9928 4.10389C11.3887 3.70798 11.6111 3.17101 11.6111 2.61111C11.6111 2.05121 11.3887 1.51424 10.9928 1.11833C10.5969 0.72242 10.0599 0.5 9.5 0.5C8.9401 0.5 8.40313 0.72242 8.00722 1.11833C7.61131 1.51424 7.38889 2.05121 7.38889 2.61111C7.38889 3.17101 7.61131 3.70798 8.00722 4.10389C8.40313 4.4998 8.9401 4.72222 9.5 4.72222ZM16.8889 4.72222C17.4488 4.72222 17.9858 4.4998 18.3817 4.10389C18.7776 3.70798 19 3.17101 19 2.61111C19 2.05121 18.7776 1.51424 18.3817 1.11833C17.9858 0.72242 17.4488 0.5 16.8889 0.5C16.329 0.5 15.792 0.72242 15.3961 1.11833C15.0002 1.51424 14.7778 2.05121 14.7778 2.61111C14.7778 3.17101 15.0002 3.70798 15.3961 4.10389C15.792 4.4998 16.329 4.72222 16.8889 4.72222ZM2.11111 12.1111C2.67101 12.1111 3.20798 11.8887 3.60389 11.4928C3.9998 11.0969 4.22222 10.5599 4.22222 10C4.22222 9.4401 3.9998 8.90313 3.60389 8.50722C3.20798 8.11131 2.67101 7.88889 2.11111 7.88889C1.55121 7.88889 1.01424 8.11131 0.61833 8.50722C0.22242 8.90313 0 9.4401 0 10C0 10.5599 0.22242 11.0969 0.61833 11.4928C1.01424 11.8887 1.55121 12.1111 2.11111 12.1111ZM9.5 12.1111C10.0599 12.1111 10.5969 11.8887 10.9928 11.4928C11.3887 11.0969 11.6111 10.5599 11.6111 10C11.6111 9.4401 11.3887 8.90313 10.9928 8.50722C10.5969 8.11131 10.0599 7.88889 9.5 7.88889C8.9401 7.88889 8.40313 8.11131 8.00722 8.50722C7.61131 8.90313 7.38889 9.4401 7.38889 10C7.38889 10.5599 7.61131 11.0969 8.00722 11.4928C8.40313 11.8887 8.9401 12.1111 9.5 12.1111ZM16.8889 12.1111C17.4488 12.1111 17.9858 11.8887 18.3817 11.4928C18.7776 11.0969 19 10.5599 19 10C19 9.4401 18.7776 8.90313 18.3817 8.50722C17.9858 8.11131 17.4488 7.88889 16.8889 7.88889C16.329 7.88889 15.792 8.11131 15.3961 8.50722C15.0002 8.90313 14.7778 9.4401 14.7778 10C14.7778 10.5599 15.0002 11.0969 15.3961 11.4928C15.792 11.8887 16.329 12.1111 16.8889 12.1111ZM2.11111 19.5C2.67101 19.5 3.20798 19.2776 3.60389 18.8817C3.9998 18.4858 4.22222 17.9488 4.22222 17.3889C4.22222 16.829 3.9998 16.292 3.60389 15.8961C3.20798 15.5002 2.67101 15.2778 2.11111 15.2778C1.55121 15.2778 1.01424 15.5002 0.61833 15.8961C0.22242 16.292 0 16.829 0 17.3889C0 17.9488 0.22242 18.4858 0.61833 18.8817C1.01424 19.2776 1.55121 19.5 2.11111 19.5ZM9.5 19.5C10.0599 19.5 10.5969 19.2776 10.9928 18.8817C11.3887 18.4858 11.6111 17.9488 11.6111 17.3889C11.6111 16.829 11.3887 16.292 10.9928 15.8961C10.5969 15.5002 10.0599 15.2778 9.5 15.2778C8.9401 15.2778 8.40313 15.5002 8.00722 15.8961C7.61131 16.292 7.38889 16.829 7.38889 17.3889C7.38889 17.9488 7.61131 18.4858 8.00722 18.8817C8.40313 19.2776 8.9401 19.5 9.5 19.5ZM16.8889 19.5C17.4488 19.5 17.9858 19.2776 18.3817 18.8817C18.7776 18.4858 19 17.9488 19 17.3889C19 16.829 18.7776 16.292 18.3817 15.8961C17.9858 15.5002 17.4488 15.2778 16.8889 15.2778C16.329 15.2778 15.792 15.5002 15.3961 15.8961C15.0002 16.292 14.7778 16.829 14.7778 17.3889C14.7778 17.9488 15.0002 18.4858 15.3961 18.8817C15.792 19.2776 16.329 19.5 16.8889 19.5Z" fill="#444750"/>
</svg>
