<svg width="14" height="13" viewBox="0 0 14 13" fill="none" xmlns="http://www.w3.org/2000/svg">
<path d="M12.5508 3.80615C13.0977 3.396 13.5898 2.90381 13.9727 2.32959C13.4805 2.54834 12.9062 2.7124 12.332 2.76709C12.9336 2.41162 13.3711 1.86475 13.5898 1.18115C13.043 1.50928 12.4141 1.75537 11.7852 1.89209C11.2383 1.31787 10.5 0.989746 9.67969 0.989746C8.09375 0.989746 6.80859 2.2749 6.80859 3.86084C6.80859 4.07959 6.83594 4.29834 6.89062 4.51709C4.51172 4.38037 2.37891 3.23193 0.957031 1.50928C0.710938 1.91943 0.574219 2.41162 0.574219 2.9585C0.574219 3.94287 1.06641 4.81787 1.85938 5.3374C1.39453 5.31006 0.929688 5.20068 0.546875 4.98193V5.00928C0.546875 6.40381 1.53125 7.55225 2.84375 7.82568C2.625 7.88037 2.35156 7.93506 2.10547 7.93506C1.91406 7.93506 1.75 7.90771 1.55859 7.88037C1.91406 9.02881 2.98047 9.84912 4.23828 9.87646C3.25391 10.6421 2.02344 11.1069 0.683594 11.1069C0.4375 11.1069 0.21875 11.0796 0 11.0522C1.25781 11.8726 2.76172 12.3374 4.40234 12.3374C9.67969 12.3374 12.5508 7.98975 12.5508 4.18896C12.5508 4.05225 12.5508 3.94287 12.5508 3.80615Z" fill="#222222"/>
</svg>
