<svg width="16" height="17" viewBox="0 0 16 17" fill="none" xmlns="http://www.w3.org/2000/svg">
<g clip-path="url(#clip0_1_437)">
<path d="M10.9994 0.42627C10.1464 0.485269 9.14941 1.03127 8.56842 1.74226C8.03843 2.38726 7.60243 3.34525 7.77243 4.27625C8.70442 4.30525 9.66741 3.74625 10.2254 3.02325C10.7474 2.35026 11.1424 1.39826 10.9994 0.42627Z" fill="white"/>
<path d="M14.3703 5.79414C13.5513 4.76714 12.4003 4.17114 11.3133 4.17114C9.87832 4.17114 9.27133 4.85814 8.27433 4.85814C7.24634 4.85814 6.46534 4.17314 5.22435 4.17314C4.00536 4.17314 2.70736 4.91814 1.88437 6.19214C0.727376 7.98613 0.925374 11.3591 2.80036 14.2321C3.47136 15.2601 4.36735 16.4161 5.53935 16.4261C6.58234 16.4361 6.87634 15.7571 8.28933 15.7501C9.70232 15.7421 9.97032 16.4351 11.0113 16.4241C12.1843 16.4151 13.1293 15.1341 13.8003 14.1061C14.2813 13.3691 14.4603 12.9981 14.8333 12.1661C12.1203 11.1331 11.6853 7.27514 14.3703 5.79414Z" fill="white"/>
</g>
<defs>
<clipPath id="clip0_1_437">
<rect width="16" height="16" fill="white" transform="translate(0 0.42627)"/>
</clipPath>
</defs>
</svg>
