<svg width="84" height="26" viewBox="0 0 84 26" fill="none" xmlns="http://www.w3.org/2000/svg">
<g clip-path="url(#clip0_2_2255)">
<path fill-rule="evenodd" clip-rule="evenodd" d="M51.7999 19.66C46.9669 23.233 39.9379 25.137 33.8749 25.137C25.7876 25.1772 17.9759 22.2007 11.9659 16.789C11.5269 16.379 11.9069 15.822 12.4659 16.145C18.2859 19.4943 24.802 21.4512 31.5042 21.8627C38.2064 22.2742 44.913 21.1291 51.0989 18.517C51.9169 18.196 52.5909 19.078 51.7999 19.66Z" fill="#222222"/>
<path fill-rule="evenodd" clip-rule="evenodd" d="M53.821 17.346C53.206 16.555 49.721 16.965 48.168 17.17C47.699 17.229 47.611 16.819 48.051 16.526C50.834 14.564 55.373 15.149 55.901 15.794C56.429 16.439 55.755 21.008 53.148 23.175C52.738 23.497 52.357 23.321 52.533 22.882C53.118 21.418 54.436 18.166 53.821 17.346Z" fill="#222222"/>
<path fill-rule="evenodd" clip-rule="evenodd" d="M48.256 2.75999V0.859994C48.2527 0.797532 48.2625 0.735077 48.2849 0.676675C48.3073 0.618272 48.3418 0.565234 48.386 0.521004C48.4302 0.476775 48.4833 0.442328 48.5417 0.41993C48.6001 0.397533 48.6625 0.387686 48.725 0.391H57.216C57.3442 0.387749 57.4686 0.43512 57.5622 0.522897C57.6558 0.610673 57.711 0.731787 57.716 0.859994V2.47099C57.716 2.73499 57.482 3.086 57.072 3.671L52.679 9.939C54.3531 9.84882 56.0214 10.2013 57.516 10.961C57.6457 11.0352 57.7542 11.1415 57.831 11.2697C57.9079 11.3979 57.9506 11.5436 57.955 11.693V13.714C57.955 14.007 57.662 14.329 57.34 14.153C55.9541 13.4357 54.4154 13.0637 52.8549 13.0688C51.2944 13.0738 49.7582 13.4557 48.377 14.182C48.3071 14.207 48.2322 14.2148 48.1586 14.2045C48.0851 14.1943 48.0151 14.1664 47.9547 14.1233C47.8943 14.0802 47.8452 14.0231 47.8116 13.9568C47.7781 13.8906 47.761 13.8172 47.762 13.743V11.807C47.7332 11.3543 47.8457 10.9039 48.084 10.518L53.184 3.22498H48.761C48.6327 3.22823 48.5083 3.18086 48.4147 3.09309C48.3212 3.00531 48.2659 2.8842 48.261 2.75599L48.256 2.75999ZM17.297 14.56H14.716C14.6005 14.5484 14.492 14.4992 14.4072 14.4198C14.3225 14.3405 14.2662 14.2355 14.247 14.121V0.885995C14.2519 0.757788 14.3072 0.636674 14.4008 0.548898C14.4943 0.461121 14.6187 0.41375 14.747 0.417001H17.147C17.2658 0.418617 17.3797 0.464496 17.4665 0.545693C17.5532 0.62689 17.6065 0.737554 17.616 0.855996V2.58399H17.675C17.903 1.86968 18.3522 1.24635 18.9577 0.804055C19.5632 0.36176 20.2936 0.123391 21.0435 0.123391C21.7933 0.123391 22.5237 0.36176 23.1292 0.804055C23.7347 1.24635 24.1839 1.86968 24.412 2.58399C24.6689 1.84755 25.1538 1.2121 25.7963 0.769784C26.4387 0.327464 27.2053 0.101277 27.985 0.124001C28.5637 0.112324 29.1369 0.239185 29.6567 0.494027C30.1765 0.748869 30.6278 1.1243 30.973 1.589C31.793 2.702 31.617 4.31299 31.617 5.74799V14.125C31.612 14.2532 31.5568 14.3743 31.4632 14.4621C31.3696 14.5499 31.2452 14.5973 31.117 14.594H28.569C28.447 14.5866 28.3319 14.5349 28.2455 14.4485C28.1591 14.3621 28.1073 14.247 28.1 14.125V7.09599C28.1392 6.26564 28.1195 5.43355 28.041 4.606C27.9873 4.25371 27.7973 3.9366 27.5121 3.723C27.2269 3.5094 26.8691 3.4164 26.516 3.464C26.1798 3.4737 25.8537 3.58146 25.578 3.77406C25.3022 3.96665 25.0888 4.23566 24.964 4.54798C24.7517 5.3796 24.6728 6.23962 24.73 7.09599V14.125C24.725 14.2532 24.6698 14.3743 24.5762 14.4621C24.4826 14.5499 24.3582 14.5973 24.23 14.594H21.653C21.531 14.5866 21.4159 14.5349 21.3295 14.4485C21.2431 14.3621 21.1913 14.247 21.184 14.125V7.09599C21.184 5.63099 21.418 3.43501 19.602 3.43501C17.757 3.43501 17.815 5.54399 17.815 7.09599V14.125C17.7966 14.2502 17.7327 14.3643 17.6354 14.4453C17.5382 14.5263 17.4145 14.5685 17.288 14.564L17.297 14.56ZM65.039 0.120004C68.876 0.120004 70.956 3.4 70.956 7.589C70.956 11.631 68.671 14.853 65.039 14.853C61.29 14.853 59.239 11.573 59.239 7.47199C59.21 3.34199 61.289 0.120004 65.039 0.120004ZM65.039 2.844C63.139 2.844 63.018 5.45099 63.018 7.06199C63.018 8.67299 62.989 12.129 65.01 12.129C67.002 12.129 67.119 9.34599 67.119 7.64799C67.155 6.46435 67.0267 5.28144 66.738 4.133C66.6579 3.74945 66.4416 3.40788 66.129 3.17161C65.8164 2.93534 65.4288 2.82039 65.038 2.848L65.039 2.844ZM75.905 14.56H73.328C73.206 14.5527 73.0909 14.5008 73.0045 14.4144C72.9181 14.328 72.8663 14.213 72.859 14.091V0.827004C72.8752 0.705753 72.9347 0.594451 73.0267 0.513741C73.1186 0.433031 73.2366 0.388352 73.359 0.387978H75.759C75.868 0.391622 75.9729 0.430854 76.0575 0.499642C76.1422 0.568431 76.2021 0.663014 76.228 0.76899V2.78999H76.287C77.019 0.973986 78.015 0.124978 79.802 0.124978C80.3966 0.0979637 80.9879 0.22701 81.5171 0.499276C82.0464 0.771542 82.4952 1.17755 82.819 1.67698C83.493 2.73198 83.493 4.51798 83.493 5.80698V14.155C83.4753 14.2731 83.4143 14.3805 83.3219 14.4563C83.2295 14.532 83.1123 14.5708 82.993 14.565H80.416C80.3047 14.5545 80.1995 14.5092 80.1153 14.4356C80.0312 14.3621 79.9723 14.2639 79.947 14.155V6.94999C79.947 5.48599 80.123 3.37699 78.336 3.37699C78.0124 3.39209 77.6999 3.49932 77.4352 3.68604C77.1705 3.87277 76.9647 4.13121 76.842 4.43098C76.5287 5.23219 76.3889 6.09078 76.432 6.94999V14.097C76.4158 14.2257 76.3534 14.3442 76.2565 14.4304C76.1596 14.5167 76.0347 14.5648 75.905 14.566V14.56ZM41.49 8.23298C41.5857 9.17618 41.4236 10.1277 41.021 10.986C40.8576 11.3252 40.605 11.6135 40.2901 11.82C39.9753 12.0265 39.6102 12.1433 39.234 12.158C38.234 12.158 37.652 11.396 37.652 10.283C37.652 8.083 39.614 7.676 41.489 7.676L41.49 8.23298ZM44.097 14.533C44.0135 14.6059 43.9093 14.6508 43.799 14.6614C43.6886 14.672 43.5778 14.6477 43.482 14.592C42.8854 14.1092 42.3795 13.5241 41.988 12.864C41.4773 13.4884 40.8266 13.9835 40.0887 14.3093C39.3508 14.6351 38.5464 14.7823 37.741 14.739C37.2125 14.77 36.6835 14.6862 36.1904 14.4934C35.6973 14.3007 35.2518 14.0034 34.8845 13.6221C34.5172 13.2408 34.2368 12.7846 34.0625 12.2846C33.8882 11.7847 33.8243 11.253 33.875 10.726C33.8446 9.8252 34.0926 8.93694 34.5853 8.18217C35.0779 7.4274 35.7912 6.84281 36.628 6.508C38.2001 5.98658 39.8357 5.6811 41.49 5.59998V5.27799C41.5775 4.63476 41.4651 3.98016 41.168 3.40299C40.9996 3.18465 40.7816 3.00959 40.532 2.89237C40.2824 2.77515 40.0085 2.71914 39.733 2.72898C39.2562 2.68738 38.7809 2.82256 38.3973 3.10874C38.0138 3.39493 37.7488 3.81213 37.653 4.28098C37.594 4.51498 37.453 4.74998 37.214 4.74998L34.724 4.486C34.6638 4.47755 34.606 4.45704 34.554 4.4257C34.502 4.39436 34.4568 4.35284 34.4213 4.30363C34.3857 4.25441 34.3604 4.19851 34.347 4.13929C34.3335 4.08007 34.3321 4.01875 34.343 3.95899C34.929 0.912993 37.653 0.00498279 40.113 0.00498279C41.5267 -0.05547 42.9137 0.402968 44.013 1.29398C45.272 2.46598 45.155 4.04698 45.155 5.74598V9.75898C45.1714 10.6506 45.5156 11.505 46.122 12.159C46.298 12.393 46.327 12.686 46.122 12.833C45.561 13.275 44.622 14.095 44.097 14.533ZM7.66098 8.23298C7.75672 9.17618 7.59461 10.1277 7.19197 10.986C7.02862 11.3252 6.77597 11.6135 6.46114 11.82C6.14631 12.0265 5.7812 12.1433 5.40499 12.158C4.40499 12.158 3.82298 11.396 3.82298 10.283C3.82298 8.083 5.78498 7.676 7.65998 7.676L7.66098 8.23298ZM10.239 14.533C10.1555 14.6059 10.0513 14.6508 9.94097 14.6614C9.83065 14.672 9.71979 14.6477 9.62398 14.592C9.0274 14.1092 8.52151 13.5241 8.12998 12.864C7.61928 13.4884 6.96858 13.9835 6.23067 14.3093C5.49276 14.6351 4.68844 14.7823 3.88298 14.739C3.35446 14.77 2.82549 14.6862 2.33241 14.4934C1.83934 14.3007 1.39384 14.0034 1.02652 13.6221C0.659207 13.2408 0.378781 12.7846 0.204515 12.2846C0.0302498 11.7847 -0.0337207 11.253 0.0169848 10.726C-0.0133793 9.8252 0.234628 8.93694 0.727251 8.18217C1.21987 7.4274 1.93316 6.84281 2.76998 6.508C4.34205 5.98658 5.97767 5.6811 7.63198 5.59998V5.27799C7.71953 4.63476 7.60713 3.98016 7.30998 3.40299C7.14161 3.18465 6.92358 3.00959 6.67401 2.89237C6.42445 2.77515 6.15052 2.71914 5.87497 2.72898C5.39823 2.68738 4.92285 2.82256 4.53931 3.10874C4.15576 3.39493 3.89085 3.81213 3.79498 4.28098C3.73598 4.51498 3.58997 4.74998 3.35597 4.74998L0.865984 4.486C0.805847 4.47755 0.748033 4.45704 0.696016 4.4257C0.643999 4.39436 0.598844 4.35284 0.563265 4.30363C0.527685 4.25441 0.502407 4.19851 0.488954 4.13929C0.475501 4.08007 0.474147 4.01875 0.484972 3.95899C1.07097 0.912993 3.79498 0.00498279 6.25498 0.00498279C7.66869 -0.05547 9.05575 0.402968 10.155 1.29398C11.414 2.46598 11.297 4.04698 11.297 5.74598V9.75898C11.3135 10.6506 11.6577 11.505 12.264 12.159C12.44 12.393 12.469 12.686 12.264 12.833C11.707 13.272 10.77 14.092 10.243 14.533H10.239Z" fill="#222222"/>
</g>
<defs>
<clipPath id="clip0_2_2255">
<rect width="83.493" height="25.138" fill="white"/>
</clipPath>
</defs>
</svg>
