<svg width="122" height="24" viewBox="0 0 122 24" fill="none" xmlns="http://www.w3.org/2000/svg">
<g clip-path="url(#clip0_2_2270)">
<path fill-rule="evenodd" clip-rule="evenodd" d="M3.70089 2.235C4.60915 1.44583 5.66465 0.844247 6.80651 0.464941C7.94838 0.0856338 9.15404 -0.0638948 10.354 0.0249753C11.5539 0.113845 12.7244 0.439356 13.7979 0.982741C14.8714 1.52613 15.8268 2.27664 16.6089 3.191C18.2907 4.89173 19.273 7.1617 19.3615 9.55192C19.45 11.9421 18.6383 14.2785 17.0869 16.099L9.91589 23.27C8.48189 22.314 6.09189 20.402 7.04789 18.489C8.95989 16.099 11.3479 14.189 13.2629 11.796C14.6969 9.884 13.7409 6.059 10.8729 5.581C10.2293 5.35604 9.53875 5.30009 8.86735 5.4185C8.19595 5.53691 7.56619 5.82573 7.0384 6.25727C6.51061 6.68882 6.10245 7.24865 5.85303 7.88315C5.6036 8.51765 5.52126 9.20556 5.61389 9.881C5.61389 12.271 7.52589 13.705 8.95989 15.14C7.52589 16.574 5.61389 17.53 5.61389 19.44C4.17989 17.528 1.78989 16.094 0.832887 13.703C-0.0411384 11.7462 -0.233568 9.5528 0.286386 7.4737C0.80634 5.39461 2.00863 3.55 3.70089 2.235Z" fill="#222222"/>
<path fill-rule="evenodd" clip-rule="evenodd" d="M34.2968 2.235C34.7748 0.801003 36.2088 1.279 37.1648 1.279V18.962H34.2968V17.532C33.1458 18.46 31.7118 18.9661 30.2333 18.9661C28.7548 18.9661 27.3208 18.46 26.1698 17.532C24.8458 16.3232 24.0528 14.6404 23.9633 12.8499C23.8738 11.0593 24.495 9.30585 25.6918 7.971C26.768 6.79969 28.2318 6.05758 29.8127 5.88185C31.3936 5.70611 32.9846 6.10863 34.2918 7.015L34.2968 2.235ZM29.9968 8.45C27.6068 8.928 25.6968 12.274 27.6068 14.665C27.9639 15.1859 28.4518 15.6038 29.0214 15.8765C29.5911 16.1493 30.2225 16.2674 30.8522 16.219C31.4819 16.1705 32.0878 15.9573 32.6091 15.6006C33.1303 15.2439 33.5485 14.7564 33.8218 14.187C35.2528 11.796 32.8618 8.449 29.9938 8.449L29.9968 8.45Z" fill="#222222"/>
<path fill-rule="evenodd" clip-rule="evenodd" d="M39.5549 6.059H42.4229V7.015C43.3789 5.581 45.2909 5.581 47.2039 6.059C46.7259 7.015 46.2479 7.493 46.2479 8.449C44.3359 7.971 42.4239 8.927 42.4239 10.361V17.532C41.9449 18.971 40.5109 18.971 39.5549 18.971V6.059Z" fill="#222222"/>
<path fill-rule="evenodd" clip-rule="evenodd" d="M51.5058 6.06C56.2868 4.148 61.0668 8.928 60.1058 13.709C59.1448 18.49 52.4568 20.88 49.1058 17.533C45.2818 14.187 46.7158 7.016 51.4958 6.06H51.5058ZM52.9398 8.45C52.137 8.66415 51.405 9.08627 50.8175 9.67374C50.23 10.2612 49.8079 10.9933 49.5938 11.796C49.4957 12.3414 49.5227 12.902 49.6729 13.4354C49.8231 13.9689 50.0925 14.4612 50.4608 14.8753C50.829 15.2894 51.2866 15.6145 51.7988 15.8259C52.3111 16.0374 52.8646 16.1297 53.4178 16.096C55.3298 16.096 57.2418 14.662 57.2418 12.75C57.2418 10.362 54.8528 7.972 52.9418 8.45H52.9398Z" fill="#222222"/>
<path fill-rule="evenodd" clip-rule="evenodd" d="M62.0239 6.059H64.8919V7.015C66.1991 6.10863 67.7901 5.70611 69.371 5.88184C70.9519 6.05758 72.4158 6.79969 73.4919 7.971C74.0829 8.58527 74.5416 9.31422 74.8398 10.1128C75.1379 10.9114 75.2691 11.7626 75.2252 12.6139C75.1813 13.4651 74.9633 14.2984 74.5847 15.0621C74.2061 15.8258 73.6749 16.5037 73.0239 17.054C71.1119 19.444 67.2869 19.444 64.8969 18.01V22.31C64.4189 23.744 62.9849 23.744 62.0289 23.744V6.059H62.0239ZM68.2389 8.449C65.3709 8.927 63.9389 12.273 65.3709 14.186C66.8049 16.576 70.6299 16.576 71.5859 14.186C73.4969 11.795 71.1069 8.449 68.2389 8.449Z" fill="#222222"/>
<path fill-rule="evenodd" clip-rule="evenodd" d="M80.1898 6.538C81.3997 5.85953 82.795 5.5863 84.1715 5.75833C85.5479 5.93036 86.8331 6.53862 87.8388 7.494C87.3608 7.972 86.8828 8.928 85.9268 9.406C85.4812 9.04499 84.9577 8.79251 84.3978 8.66849C83.8379 8.54447 83.2568 8.5523 82.7004 8.69137C82.1441 8.83044 81.6276 9.09694 81.1919 9.46983C80.7562 9.84272 80.4131 10.3118 80.1898 10.84C79.982 11.4061 79.9076 12.0124 79.9722 12.6119C80.0369 13.2115 80.2389 13.788 80.5626 14.2967C80.8863 14.8055 81.3229 15.2328 81.8386 15.5453C82.3542 15.8579 82.935 16.0474 83.5358 16.099C84.4918 16.099 85.4478 15.621 86.4038 15.621C87.2577 15.997 87.9398 16.6791 88.3158 17.533C84.9698 20.401 79.2328 19.445 77.7988 15.143C75.8868 12.274 77.3208 8.448 80.1898 6.538Z" fill="#222222"/>
<path fill-rule="evenodd" clip-rule="evenodd" d="M88.3169 14.664C86.8849 10.362 90.2289 5.581 94.5319 5.581C96.253 5.65613 97.8982 6.31105 99.2 7.43935C100.502 8.56765 101.384 10.103 101.703 11.796V18.967C100.269 18.967 99.3129 18.967 98.3569 18.011C95.0109 20.401 89.7569 18.489 88.3179 14.665L88.3169 14.664ZM94.5319 8.449C93.8735 8.57286 93.2544 8.85241 92.726 9.26431C92.1977 9.67621 91.7756 10.2085 91.4949 10.8168C91.2142 11.425 91.0831 12.0916 91.1125 12.7609C91.1419 13.4302 91.331 14.0827 91.6639 14.664C93.5759 17.054 97.4009 16.576 98.3569 14.186C98.6017 13.5556 98.6912 12.8756 98.6178 12.2033C98.5444 11.531 98.3102 10.8863 97.935 10.3237C97.5599 9.761 97.0548 9.29691 96.4625 8.97062C95.8701 8.64432 95.208 8.46541 94.5319 8.449Z" fill="#222222"/>
<path fill-rule="evenodd" clip-rule="evenodd" d="M103.615 6.06H106.483V7.016C107.917 5.104 111.264 5.582 113.176 7.494C115.566 4.626 120.347 5.582 121.303 8.928C121.781 11.796 121.303 15.143 121.303 18.011C121.303 18.967 119.869 18.967 118.435 18.967C118.435 16.099 118.913 13.23 118.435 10.367C118.341 9.8651 118.075 9.41174 117.683 9.08547C117.29 8.7592 116.796 8.58059 116.285 8.58059C115.774 8.58059 115.28 8.7592 114.887 9.08547C114.495 9.41174 114.229 9.8651 114.135 10.367V18.967H111.267C111.346 15.9315 111.186 12.8944 110.789 9.884C110.311 7.972 106.965 8.45 106.965 10.362C106.568 13.2105 106.408 16.087 106.487 18.962H103.615V6.06Z" fill="#222222"/>
</g>
<defs>
<clipPath id="clip0_2_2270">
<rect width="121.516" height="23.743" fill="white"/>
</clipPath>
</defs>
</svg>
