<svg width="14" height="13" viewBox="0 0 14 13" fill="none" xmlns="http://www.w3.org/2000/svg">
<path d="M7.125 3.50537C5.375 3.50537 3.98047 4.92725 3.98047 6.6499C3.98047 8.3999 5.375 9.79443 7.125 9.79443C8.84766 9.79443 10.2695 8.3999 10.2695 6.6499C10.2695 4.92725 8.84766 3.50537 7.125 3.50537ZM7.125 8.70068C6.00391 8.70068 5.07422 7.79834 5.07422 6.6499C5.07422 5.52881 5.97656 4.62646 7.125 4.62646C8.24609 4.62646 9.14844 5.52881 9.14844 6.6499C9.14844 7.79834 8.24609 8.70068 7.125 8.70068ZM11.1172 3.396C11.1172 2.98584 10.7891 2.65771 10.3789 2.65771C9.96875 2.65771 9.64062 2.98584 9.64062 3.396C9.64062 3.80615 9.96875 4.13428 10.3789 4.13428C10.7891 4.13428 11.1172 3.80615 11.1172 3.396ZM13.1953 4.13428C13.1406 3.1499 12.9219 2.2749 12.2109 1.56396C11.5 0.853027 10.625 0.634277 9.64062 0.57959C8.62891 0.524902 5.59375 0.524902 4.58203 0.57959C3.59766 0.634277 2.75 0.853027 2.01172 1.56396C1.30078 2.2749 1.08203 3.1499 1.02734 4.13428C0.972656 5.146 0.972656 8.18115 1.02734 9.19287C1.08203 10.1772 1.30078 11.0249 2.01172 11.7632C2.75 12.4741 3.59766 12.6929 4.58203 12.7476C5.59375 12.8022 8.62891 12.8022 9.64062 12.7476C10.625 12.6929 11.5 12.4741 12.2109 11.7632C12.9219 11.0249 13.1406 10.1772 13.1953 9.19287C13.25 8.18115 13.25 5.146 13.1953 4.13428ZM11.8828 10.2593C11.6914 10.8062 11.2539 11.2163 10.7344 11.4351C9.91406 11.7632 8 11.6812 7.125 11.6812C6.22266 11.6812 4.30859 11.7632 3.51562 11.4351C2.96875 11.2163 2.55859 10.8062 2.33984 10.2593C2.01172 9.46631 2.09375 7.55225 2.09375 6.6499C2.09375 5.7749 2.01172 3.86084 2.33984 3.04053C2.55859 2.521 2.96875 2.11084 3.51562 1.89209C4.30859 1.56396 6.22266 1.646 7.125 1.646C8 1.646 9.91406 1.56396 10.7344 1.89209C11.2539 2.0835 11.6641 2.521 11.8828 3.04053C12.2109 3.86084 12.1289 5.7749 12.1289 6.6499C12.1289 7.55225 12.2109 9.46631 11.8828 10.2593Z" fill="white"/>
</svg>
