<svg width="38" height="40" viewBox="0 0 38 40" fill="none" xmlns="http://www.w3.org/2000/svg">
<path d="M33.4978 29.0242L33.453 28.9712C31.2669 26.3824 28.2741 24.6202 24.9435 23.8977C26.6885 22.6493 28.0377 20.882 28.7652 18.8235H31.4446C32.946 18.8235 34.1673 17.6022 34.1673 16.1009V15.2941C34.1673 6.86094 27.3064 0 18.8732 0C10.44 0 3.57907 6.86094 3.57907 15.2941V16.1009C3.57907 17.6022 4.80048 18.8235 6.30174 18.8235H8.88401C9.62338 20.9158 11.0054 22.7068 12.7922 23.9584C9.56793 24.7154 6.67515 26.4511 4.54707 28.9711L4.50189 29.0247C2.0506 31.9276 0.807617 35.2245 0.807617 38.8235V40H37.1926V38.8235C37.1926 35.2245 35.9496 31.9277 33.4978 29.0242ZM18.8246 23.5076C15.5631 23.5076 12.7412 21.5902 11.4261 18.8235H17.3046V16.4706H10.7191C10.666 16.0948 10.638 15.7111 10.638 15.3209C10.638 10.8067 14.3105 7.1342 18.8246 7.1342C23.3388 7.1342 27.0113 10.8067 27.0113 15.3209C27.0113 19.8351 23.3388 23.5076 18.8246 23.5076ZM31.8144 16.1009C31.8144 16.3048 31.6486 16.4706 31.4447 16.4706H29.3013C29.3425 16.0929 29.3643 15.7094 29.3643 15.3209C29.3643 14.914 29.3403 14.5127 29.2952 14.1176H31.7604C31.7955 14.5053 31.8144 14.8975 31.8144 15.2941V16.1009ZM18.8733 2.35294C24.786 2.35294 29.7852 6.33882 31.3252 11.7647H28.7463C27.2841 7.69773 23.3888 4.78125 18.8246 4.78125C14.2605 4.78125 10.3652 7.69773 8.90307 11.7647H6.42134C7.96134 6.33882 12.9606 2.35294 18.8733 2.35294ZM6.30181 16.4706C6.09789 16.4706 5.93209 16.3048 5.93209 16.1009V15.2941C5.93209 14.8975 5.95107 14.5053 5.98613 14.1176H8.35413C8.30903 14.5127 8.28503 14.914 8.28503 15.3209C8.28503 15.7094 8.30683 16.0929 8.34801 16.4706H6.30181ZM3.21475 37.6471C3.45468 35.0717 4.48942 32.6865 6.2997 30.5428L6.34487 30.4893C8.81727 27.5615 12.522 25.8824 16.5091 25.8824H21.4911C25.4783 25.8824 29.183 27.5615 31.6557 30.4897L31.7005 30.5427C33.5108 32.6865 34.5455 35.0717 34.7854 37.6471H3.21475Z" fill="url(#paint0_linear_2_2197)"/>
<defs>
<linearGradient id="paint0_linear_2_2197" x1="19.0001" y1="0" x2="19.0001" y2="40" gradientUnits="userSpaceOnUse">
<stop stop-color="#130855"/>
<stop offset="1" stop-color="#009DFF"/>
</linearGradient>
</defs>
</svg>
