<svg width="40" height="32" viewBox="0 0 40 32" fill="none" xmlns="http://www.w3.org/2000/svg">
<path d="M37.8386 22.7449V3.57823H32.3023C31.3862 1.61183 29.3919 0.244873 27.0834 0.244873C24.7748 0.244873 22.7805 1.61183 21.8644 3.57823H2.16148V22.7449H0V25.885C0 29.1219 2.63336 31.7553 5.87031 31.7553H34.1298C37.3667 31.7553 40.0001 29.1219 40.0001 25.885V22.7449H37.8386ZM27.0834 2.58862C28.9645 2.58862 30.4948 4.11901 30.4948 6.00011C30.4948 7.8812 28.9645 9.41159 27.0834 9.41159C25.2023 9.41159 23.6719 7.8812 23.6719 6.00011C23.6719 4.11901 25.2023 2.58862 27.0834 2.58862ZM29.2318 11.3377V15.0184L27.0834 14.4792L24.9349 15.0184V11.3377C25.5992 11.606 26.324 11.7553 27.0834 11.7553C27.8427 11.7553 28.5675 11.6061 29.2318 11.3377ZM4.50523 5.92198H21.3301C21.3301 7.27972 21.8018 8.60644 22.5912 9.59167V18.0231L27.0834 16.8957L31.5755 18.0231V9.59167C32.3649 8.60644 32.8366 7.27972 32.8366 5.92198H35.4948V22.7449H20.4851C20.3963 20.4368 19.1298 18.4257 17.2692 17.2988C18.2204 16.3899 18.8148 15.1106 18.8148 13.6942C18.8148 10.9437 16.577 8.70605 13.8265 8.70605C11.076 8.70605 8.83828 10.9438 8.83828 13.6942C8.83828 15.1106 9.43258 16.3899 10.3837 17.2988C8.52328 18.4257 7.25664 20.4367 7.16797 22.7449H4.50523V5.92198ZM13.8262 18.6825H13.8266C13.8266 18.6825 13.8268 18.6825 13.827 18.6825C16.1226 18.6827 18.0058 20.4824 18.1402 22.7449H9.51289C9.64742 20.4824 11.5305 18.6827 13.8262 18.6825ZM11.1821 13.6942C11.1821 12.236 12.3684 11.0498 13.8266 11.0498C15.2848 11.0498 16.4711 12.2361 16.4711 13.6942C16.4711 15.1523 15.285 16.3385 13.827 16.3387C13.8268 16.3387 13.8267 16.3387 13.8266 16.3387C13.8264 16.3387 13.8263 16.3387 13.8262 16.3387C12.3682 16.3385 11.1821 15.1523 11.1821 13.6942ZM37.6562 25.885C37.6562 27.8296 36.0743 29.4115 34.1298 29.4115H5.87031C3.92578 29.4115 2.34375 27.8295 2.34375 25.885V25.0912H37.6562V25.885Z" fill="url(#paint0_linear_2_2176)"/>
<defs>
<linearGradient id="paint0_linear_2_2176" x1="20" y1="0.244873" x2="20" y2="31.7553" gradientUnits="userSpaceOnUse">
<stop stop-color="#130855"/>
<stop offset="1" stop-color="#009DFF"/>
</linearGradient>
</defs>
</svg>
