<svg width="36" height="40" viewBox="0 0 36 40" fill="none" xmlns="http://www.w3.org/2000/svg">
<path d="M35.5779 0H0.422119V23.4372H8.62513V27.7795C8.62513 33.3888 12.3472 38.3757 17.6764 39.907L18 39.9999L18.3236 39.907C23.6528 38.3757 27.3749 33.3887 27.3749 27.7795V23.4372H35.5779V0ZM33.2342 2.34372V4.68744H2.76584V2.34372H33.2342ZM25.0312 27.7795C25.0312 32.2348 22.1568 36.2061 18 37.5554C13.8432 36.2061 10.9689 32.2348 10.9689 27.7795V23.4372H14.4844C15.8829 23.4372 17.1404 22.8215 18 21.847C18.8596 22.8216 20.1171 23.4372 21.5156 23.4372H25.0312V27.7795ZM21.5156 21.0935C20.2233 21.0935 19.1719 20.0421 19.1719 18.7497H16.8281C16.8281 20.0421 15.7768 21.0935 14.4844 21.0935C13.9666 21.0935 3.28411 21.0935 2.76584 21.0935V7.03115H33.2342V21.0935C32.7171 21.0935 22.035 21.0935 21.5156 21.0935Z" fill="url(#paint0_linear_2_2189)"/>
<path d="M18.5032 25.1024L18.0002 24.8633L17.4971 25.1024C16.55 25.5526 15.5365 25.7808 14.4846 25.7808H13.3127V27.7789C13.3127 30.6624 14.8965 33.3037 17.446 34.6719L18.0002 34.9693L18.5543 34.6719C21.1038 33.3036 22.6876 30.6624 22.6876 27.7789V25.7808H21.5158C20.4639 25.7808 19.4503 25.5526 18.5032 25.1024ZM18.0001 32.2663C16.6141 31.2982 15.7474 29.747 15.6631 28.0514C16.4656 27.9508 17.2471 27.7468 18.0001 27.4407C18.7531 27.7468 19.5346 27.9508 20.3371 28.0514C20.2529 29.7471 19.3861 31.2982 18.0001 32.2663Z" fill="url(#paint1_linear_2_2189)"/>
<path d="M23.8594 14.0623H30.8905V16.406H23.8594V14.0623Z" fill="url(#paint2_linear_2_2189)"/>
<defs>
<linearGradient id="paint0_linear_2_2189" x1="18" y1="0" x2="18" y2="39.9999" gradientUnits="userSpaceOnUse">
<stop stop-color="#130855"/>
<stop offset="1" stop-color="#009DFF"/>
</linearGradient>
<linearGradient id="paint1_linear_2_2189" x1="18.0002" y1="24.8633" x2="18.0002" y2="34.9693" gradientUnits="userSpaceOnUse">
<stop stop-color="#130855"/>
<stop offset="1" stop-color="#009DFF"/>
</linearGradient>
<linearGradient id="paint2_linear_2_2189" x1="27.375" y1="14.0623" x2="27.375" y2="16.406" gradientUnits="userSpaceOnUse">
<stop stop-color="#130855"/>
<stop offset="1" stop-color="#009DFF"/>
</linearGradient>
</defs>
</svg>
